<mxfile host="app.diagrams.net" modified="2023-12-01T12:44:16.770Z" agent="Mozilla/5.0 (Windows NT 10.0; Win64; x64) AppleWebKit/537.36 (KHTML, like Gecko) Chrome/119.0.0.0 Safari/537.36" etag="0-jb06tcdFtyWBizzr-y" version="22.1.5" type="github">
  <diagram name="ページ1" id="lnhMBhwb3LrNpfc4l75T">
    <mxGraphModel dx="1914" dy="976" grid="0" gridSize="10" guides="1" tooltips="1" connect="1" arrows="1" fold="1" page="0" pageScale="1" pageWidth="827" pageHeight="1169" math="0" shadow="0">
      <root>
        <mxCell id="0" />
        <mxCell id="1" parent="0" />
      </root>
    </mxGraphModel>
  </diagram>
</mxfile>
